Coordinates
version=1
nRows=5
nColumns=40
inDegrees=yes

Units are S.I. units (second, meters, Newtons, ...)
Angles are in degrees.

endheader
time	pelvis_tilt	pelvis_list	pelvis_rotation	pelvis_tx	pelvis_ty	pelvis_tz	hip_flexion_r	hip_adduction_r	hip_rotation_r	knee_angle_r	knee_angle_r_beta	ankle_angle_r	subtalar_angle_r	mtp_angle_r	hip_flexion_l	hip_adduction_l	hip_rotation_l	knee_angle_l	knee_angle_l_beta	ankle_angle_l	subtalar_angle_l	mtp_angle_l	lumbar_extension	lumbar_bending	lumbar_rotation	arm_flex_r	arm_add_r	arm_rot_r	elbow_flex_r	pro_sup_r	wrist_flex_r	wrist_dev_r	arm_flex_l	arm_add_l	arm_rot_l	elbow_flex_l	pro_sup_l	wrist_flex_l	wrist_dev_l
     50.67500000	     -3.14627439	     -3.93385598	    -10.84506041	      0.99139167	      0.92390586	      0.48119067	     20.09549712	      3.52459493	     -3.90671451	     22.80802272	     22.80802272	      8.67658938	      2.50188679	     -5.55231391	     -2.74462762	     -6.83820593	    -12.37463093	     21.50209964	     21.50209964	     20.53177623	    -11.13378356	      2.43701824	     -8.83633264	      8.16160152	      1.42582791	    -15.31215059	    -13.11290630	    -10.20460174	     29.51959096	     46.03477742	      0.00000000	      0.00000000	     42.47838042	    -23.82540038	     -9.00209502	     68.64971035	     47.72678596	      0.00000000	      0.00000000
     50.69457143	     -3.18014133	     -4.06643563	    -10.28338476	      0.99216488	      0.92482003	      0.48503221	     19.37288610	      3.77957501	     -4.30234962	     22.40011108	     22.40011108	      9.02109390	      2.46336097	     -5.49981150	     -1.73215299	     -7.66363195	    -11.83646526	     24.04078902	     24.04078902	     19.84593787	    -11.64803035	      1.77316521	     -8.79950596	      8.30088908	      1.44551683	    -14.97293574	    -13.25541569	    -10.14888932	     29.65678531	     46.02933358	      0.00000000	      0.00000000	     42.15292751	    -23.41577443	     -8.88990232	     68.70534336	     47.71770792	      0.00000000	      0.00000000
     50.71414286	     -3.20218784	     -4.15650449	     -9.68018367	      0.99285219	      0.92567149	      0.48878417	     18.65177130	      3.99257575	     -4.69271555	     21.98359685	     21.98359685	      9.32213532	      2.35136053	     -5.44433971	     -0.46286887	     -8.50037539	    -11.23758268	     26.98329921	     26.98329921	     18.87794422	    -12.18514251	      0.76337890	     -8.72531822	      8.37723459	      1.46308011	    -14.64350881	    -13.41404032	    -10.07320998	     29.79397298	     46.02262578	      0.00000000	      0.00000000	     41.58119907	    -22.88740363	     -8.78047124	     68.74227179	     47.70671895	      0.00000000	      0.00000000
     50.73371429	     -3.12797085	     -4.24082650	     -9.07511877	      0.99342053	      0.92653238	      0.49247155	     17.84690241	      4.20118930	     -5.05859286	     21.58219269	     21.58219269	      9.61679296	      2.18071160	     -5.40873563	      0.94793232	     -9.33021342	    -10.52480136	     30.29218097	     30.29218097	     17.60891317	    -12.85201505	     -0.39311165	     -8.76413445	      8.40213160	      1.51250006	    -14.23224537	    -13.54748784	     -9.98949819	     29.93379528	     46.01584314	      0.00000000	      0.00000000	     40.89162951	    -22.30248409	     -8.69252738	     68.75879349	     47.69583713	      0.00000000	      0.00000000
     50.75328571	     -3.10573013	     -4.34056693	     -8.45941351	      0.99390394	      0.92702672	      0.49617509	     17.14495630	      4.53219714	     -5.06416631	     21.23478318	     21.23478318	      9.81988973	      1.28688802	     -5.47886579	      2.38882582	    -10.21861160	     -9.87515431	     33.25582638	     33.25582638	     13.48780544	    -14.75239069	     -7.74954345	     -8.69989311	      8.44551251	      1.16628971	    -13.54159462	    -13.83999691	     -9.15211518	     30.02778403	     45.97218459	      0.00000000	      0.00000000	     39.36483944	    -21.81310115	     -9.53569101	     69.48369911	     47.75774032	      0.00000000	      0.00000000
